<?xml version="1.0" encoding="utf-8"?>
<!-- Generator: Adobe Illustrator 28.0.0, SVG Export Plug-In . SVG Version: 6.00 Build 0)  -->
<svg version="1.1" id="Capa_1" xmlns="http://www.w3.org/2000/svg" xmlns:xlink="http://www.w3.org/1999/xlink" x="0px" y="0px"
	 viewBox="0 0 150 150" style="enable-background:new 0 0 150 150;" xml:space="preserve">
<style type="text/css">
	.st0{fill:#2B2B2B;}
</style>
<g>
	<g>
		<path class="st0" d="M111.7,105.7c-3.4,0-6.8,0-10.2,0c0,0,0,0,0,0c0,0,0,0,0,0c0-0.2-0.1-0.4-0.1-0.6c0-16.3,0-32.7,0-49
			c0-0.5,0-1.1,0.5-1.4c0,0,0,0,0,0c0.9,0,1.8,0.1,2.7,0.1c0.7,0,1.4-0.3,1.7-1c0.6-1.7,0.8-3.5,0.1-5.1c-0.6-1.4-2.1-1.2-3.4-1.2
			c-18.5,0-37,0-55.6,0c-0.5,0-1.1,0-1.6,0c-1.3,0.1-2.2,0.8-2.2,2.1c0.1,1.7-0.9,3.8,1.3,5c0.3,0.2,0.7,0.2,1.1,0.2
			c0.5,0,1,0.1,1.4,0c1.1-0.1,1.5,0.4,1.5,1.5c0,2.7,0,5.4,0,8.1c0,13.7,0,27.4,0.1,41c-0.7,0.5-1.4,0.3-2.2,0.3c-3,0-6,0-8.9,0
			c-1.9,0.1-2.6,1.3-2.6,3.8c0,2.1,1.5,1.4,2.5,1.4c24.9,0,49.8,0,74.7,0c0.4,0,0.9,0,1.3,0c0.3,0,0.6-0.1,0.8-0.5
			C115.5,108.2,114,105.7,111.7,105.7z M101.4,54.8c0.1-0.1,0.2-0.2,0.4-0.2C101.7,54.7,101.5,54.7,101.4,54.8z M51.8,88.7
			c0,4.9,0,9.9,0,14.8c0,2.1,0,2.1-2.1,2.1c0,0,0,0.1,0,0.1c0,0,0,0,0,0c0,0,0,0,0,0l0,0c-0.1-0.1-0.1-0.2-0.2-0.3
			c-0.2-0.5-0.2-1.1-0.2-1.7c0-15.6,0-31.2,0-46.8c0-0.6-0.1-1.3,0.2-1.9c0-0.1,0-0.1,0.1-0.2c0.8-0.1,1.6-0.3,2.3,0.3
			C51.9,66.4,51.9,77.5,51.8,88.7z M52.5,55.2c0.9-0.6,2-0.5,3.1-0.5c5.7,0,11.4,0,17,0c0.3,0,1.1-0.1,1.4,0.2
			c0.3,0.3-0.1,0.9-0.3,1.2c-1,1.8-2.6,2.8-4.1,4.2c-0.5,0.4-1,0.9-1.5,1.2c-1.4,0.8-2.9,1.3-4.5,1.6c-2.7,0.4-11.2,0.2-11-4
			C52.6,57.7,52.5,56.5,52.5,55.2z M52.9,93.4c-0.5-0.3-0.4-0.8-0.4-1.3c0-3.8,0-7.7,0-11.5c0-3.7,0-7.4,0-11.2
			c0-1.2,0.2-1.6,1.5-1.1c1.5,0.5,2,1.3,2,2.9c-0.1,6.1-0.1,12.1,0,18.2c0,1.5-0.4,2.7-1.6,3.6C54,93.3,53.5,93.7,52.9,93.4z
			 M97.5,101.9c-0.1,1.7-0.6,3.1-1.8,3.1c-6.6,0-13.1-0.1-19.7,0.1c-0.2,0-0.4,0.1-0.6,0.1c-0.5-1.8,0.1-2.3,2.1-2.3
			c0.9,0,1.6-0.4,2-1.1c0.3-0.6,0.8-1.3,0.3-1.9c-0.4-0.6-1.2-0.2-1.8-0.1c-1.2,0.1-1.4,1.4-2.3,2.1c-0.6-3.4,0-4.6,2.9-5.9
			c0.9-0.4,1.3-1.1,1.3-2c0-0.5-0.3-0.8-0.8-0.7c-0.9,0.1-1.6,0.5-1.9,1.4c0,0.1-0.1,0.2-0.1,0.3c-0.1,0.9-0.7,1.4-1.4,1.8
			c-0.3-1.5-0.3-1.5,0.3-2.3c0.8-1.3,0.6-2.7-0.3-3.5c-0.4-0.3-0.7-0.4-1.1,0c-0.9,0.8-1.1,2.2-0.3,3.5c0.5,0.8,0.5,1.5,0.2,2.4
			c-0.8-0.4-1.2-0.9-1.3-1.6c-0.1-1.1-0.8-1.7-1.9-1.8c-0.5-0.1-0.9,0.1-0.9,0.7c0,1.1,0.6,1.6,1.5,2.2c2.7,1.7,3.2,2.5,2.4,5.7
			c-0.5-0.1-0.4-0.7-0.7-1c-0.7-0.9-1.7-1.2-2.8-1.1c-0.6,0.1-0.6,0.7-0.5,1.1c0.3,1.2,0.9,2,2.2,2.2c0.2,0,0.3,0,0.5,0
			c1.2-0.2,1.5,0.4,1.5,1.4c0,0.3,0,0.6,0,0.9c-0.1,0-0.2,0-0.3,0c-1-0.2-2-0.2-3-0.2c-5.1,0-10.1,0-15.2,0c-1,0-2.1-0.1-2.5-1.1
			c-0.2-0.5-0.2-1-0.2-1.6c0-1.4,0-2.7,0-4.1c0-0.6,0-1.3,0.2-1.9c0.5-1.6,2.6-2.2,3.4-3.8c1-2,0.6-4.3,0.6-6.5c0-2.6,0-5.2,0.1-7.8
			c0-1.3,0.3-2.7-0.4-3.9c0.8,0.4,1.7,0.6,2.6,0.7c5.2,0.5,9.7-1.1,13.5-4.9c1.4-1.4,1.8-1.4,3.3,0c2,1.8,4.1,3.3,6.7,4.2
			c2.5,0.9,5,0.7,7.6,0.7c1.2,0,1.8,0.4,1.8,1.6c0,0.4,0.1,0.8,0.1,1.3c0,0.3,0,0.7,0,1c-0.2,2.6,0.1,5.2-0.1,7.8
			c-0.2,2.3,0,4.7,1.3,6.6c0.7,1,1.8,1.5,2.4,2.4C97,96.6,97.7,99.6,97.5,101.9z M57.3,69.3c3.8,0.9,7.4,0.1,10.7-1.9
			c3.3-1.9,5.4-4.9,6.8-8.4c0.8,0.5,0.9,1.3,1.2,1.9c3.1,6.1,8.9,9.3,15.7,8.7c0.7-0.1,1.6-0.6,1.7,0.7c0,1,0.4,2.2-1.1,2.6
			c-5.2,1.4-9.7,0.1-13.7-3.2c-0.8-0.7-1.5-1.5-2.3-2.3c-1.4-1.6-1.4-1.6-2.8,0.1c-1.6,1.9-3.5,3.4-5.7,4.5
			c-3.6,1.7-7.4,1.9-11.2,0.5C57,71.4,56.2,70.1,57.3,69.3z M97.6,80.8C97.6,80.8,97.6,80.8,97.6,80.8c0,3.8,0,7.6,0,11.3
			c0,0.5,0.1,1-0.4,1.3c-0.5,0.2-0.9-0.1-1.3-0.4c-1-0.7-1.5-1.6-1.5-2.8c0-6.7,0-13.3,0-20c0-0.9,2-2.5,2.8-2.2
			c0.6,0.2,0.4,0.8,0.4,1.2C97.6,73.1,97.6,76.9,97.6,80.8z M96,67.4c-5.5,2.9-12.8,1.4-17-3.6c-1.5-1.8-2.7-3.8-3.4-6
			c-0.1-0.3-0.2-0.7-0.5-0.7c-0.3-0.1-0.4,0.1-0.5,0.4c-0.8,1.5-1.2,3.1-2.1,4.5c-0.8,1.3-1.8,2.4-3,3.3c-2.5,2-5.6,3.1-8.7,3.4
			c-0.6,0.1-1.1,0.1-1.7,0.1c-1.6-0.5-3.4-0.5-4.9-1.5c-1.2-0.2-1.6-1-1.6-2.2c0.1-0.7,0-1.4,0-2.1c0-0.4-0.2-1.1,0.3-1.3
			c0.5-0.2,0.9,0.3,1.2,0.6c0.2,0,0.4,0,0.6,0.1c0.3,0,0.8,0.4,1.1,0.5c0.4,0.1,0.8,0.3,1.2,0.4c0.8,0.2,1.6,0.4,2.4,0.5
			c1.7,0.2,3.3,0,5-0.3c3.4-0.8,6.3-2.6,8.6-5.2c0.4-0.5,0.8-0.9,1.1-1.5c0.3-0.5,0.5-0.6,0.9-1.3c-0.1,0.1,0.3,0.4,0.3,0.4
			c0.6,0.7,1,1.6,1.7,2.3c1.6,1.8,3.6,3.4,5.9,4.5c1.7,0.8,3.5,1.2,5.3,1.3c1.8,0.1,3.5-0.2,5.2-0.6c0.7-0.2,1.3-0.4,2-0.6
			c0.1-0.1,0.2-0.1,0.3-0.2c1.9-1.1,2.1-1.1,2,1.2C97.5,65.2,98.3,67,96,67.4z M97.7,60c0,0.2,0,0.4-0.1,0.5c0,0,0,0.1-0.1,0.1
			c-0.1,0.1-0.2,0.2-0.3,0.2c-0.6,0.4-1.3,0.8-1.9,1.1c-3.1,1.5-6.8,1.9-10.2,1c-1.8-0.5-3.4-1.3-4.9-2.4c-0.7-0.6-1.4-1.2-2-1.9
			c-0.8-0.9-1.4-1.8-2.3-2.6c-0.1-0.1-0.3-0.3-0.3-0.4c-0.1-0.3,0.1-0.5,0.4-0.6c0.2-0.1,0.5-0.1,0.8-0.1c6.6,0,13.2,0,19.9,0
			c0.3,0,0.6,0,0.8,0.2c0.2,0.2,0.2,0.5,0.2,0.8C97.7,57.2,97.8,58.6,97.7,60z M100.4,105.7C100.4,105.7,100.4,105.7,100.4,105.7
			c-0.6,0-1.3,0-1.9,0c-0.3-0.6-0.2-1.2-0.2-1.9c0-15.7,0-31.4,0-47c0-0.8-0.3-1.8,0.8-2.2c1.2,0,1.6,0.5,1.5,1.7c-0.1,16,0,32,0,48
			C100.6,104.8,100.7,105.3,100.4,105.7z M92.9,54.1c-5.1,0-10.3,0-15.4,0c-10.3,0-20.5,0-30.8,0.1c-0.2,0-0.3,0-0.5,0
			c-0.3,0-0.6,0-0.9-0.1c-0.4-0.2-0.7-0.6-0.8-1.1c-0.4-1.2-0.7-4.6,1.2-4.7c0.5,0,1.1,0,1.6,0c18.4,0,36.9,0,55.3,0
			c1,0,2.1-0.4,2.8,0.5c0.3,0.4,0.4,1,0.4,1.5c0.1,0.9,0.2,1.9-0.2,2.8c-0.8,1.7-3.4,1.1-5,1.1C98.1,54.1,95.5,54.1,92.9,54.1z
			 M101.4,105.7c0-0.1-0.1-0.1-0.1-0.2C101.4,105.6,101.4,105.6,101.4,105.7C101.4,105.7,101.4,105.7,101.4,105.7z"/>
		<g>
			<path class="st0" d="M111.7,105.7c0,0-10.3,0-10.2,0c-0.1-0.5,0-1.1-0.1-1.6c0,0,0-1.6,0-1.6c0-13,0-28.7,0-41.6c0,0,0-3.2,0-3.2
				s0-1.6,0-1.6c0-0.5,0-1.2,0.5-1.5c0,0,0,0,0,0s0,0,0,0s0,0,0,0s0,0,0,0s0,0,0,0l2.1,0c1.9,0.2,2.3-0.6,2.6-2.4
				c0.3-1.3,0.2-2.8-0.5-4c-0.4-0.6-1.1-0.8-1.8-0.8c-2.6,0-18,0-21,0c0,0-33.6,0-33.6,0s-2.1,0-2.1,0c-1.3,0-3-0.2-3.7,1.1
				c-0.3,0.6-0.1,1.4-0.2,2c-0.1,1.2-0.3,2.5,0.6,3.4c0.4,0.3,0.8,0.6,1.3,0.6c0.5,0,1,0.1,1.6,0c0.5,0,1.2-0.1,1.6,0.4
				c0.4,0.6,0.3,1.5,0.3,2.1c0,3.8,0,10.9,0,14.7c0,0.1,0,33.6,0,33.6c-0.5,0.4-1.1,0.4-1.7,0.4c-2.5,0-5.6,0-8.1,0
				c-2.9-0.1-3.9,0.3-4,3.5c-0.1,1.4,0.3,1.9,1.8,1.6c0.4-0.1,1.2,0,1.6,0c1,0,3.8,0,4.8,0c20,0,47.9,0.1,67.9,0.1
				c0.8,0,1.6,0,2.4-0.1c0.3,0,0.5-0.3,0.6-0.5C115.5,108.3,114,105.6,111.7,105.7L111.7,105.7z M111.7,105.7c2.3,0,3.9,2.6,2.9,4.7
				c-0.1,0.3-0.3,0.5-0.6,0.5c-0.8,0.1-1.6,0.1-2.4,0.1c-21.2,0-49.8,0-71.1,0c0,0-1.6,0-1.6,0s-0.8,0-0.8,0c-1.6,0-2.9,0.6-2.8-1.8
				c0.1-3.2,1.2-3.7,4.2-3.6c1.8,0,4.6,0,6.5,0c1-0.1,2.2,0.3,3.1-0.3c0,0,0,0.1,0,0.1c0-6.2-0.1-36.4-0.1-42c0-1.3,0-5,0-6.3
				c0-0.9,0.3-2.3-1.1-2.3c-0.3,0-0.7,0-1,0c-0.7-0.1-1.5,0.1-2.1-0.4c-1.4-0.8-1.3-2.5-1.1-3.9c0.1-0.7-0.1-1.4,0.3-2.1
				c0.7-1.4,2.6-1.2,3.9-1.2c0,0,2.1,0,2.1,0s33.6,0,33.6,0c3,0,18.3,0,21,0c0.7,0,1.5,0.2,1.9,0.9c0.7,1.2,0.8,2.7,0.6,4.1
				c-0.4,1.8-0.8,2.6-2.8,2.5c0,0-2.1,0-2.1,0s0,0,0,0c0,0,0,0,0,0c-0.2,0.1-0.4,0.4-0.4,0.6c-0.1,0.2-0.1,0.5-0.1,0.8l0,1.6
				c0,0,0,3.2,0,3.2c0,13,0,28.7,0,41.6c0,0.9,0,2.4,0,3.2C101.4,105.6,111.6,105.7,111.7,105.7L111.7,105.7z"/>
			<path class="st0" d="M101.4,54.8c0-0.2,0.2-0.3,0.4-0.4l0.1,0.3C101.8,54.8,101.6,54.8,101.4,54.8
				C101.4,54.8,101.6,54.8,101.4,54.8z M101.4,54.8c0-0.2,0.2-0.3,0.4-0.4l0.1,0.3C101.8,54.8,101.6,54.8,101.4,54.8
				C101.4,54.8,101.6,54.8,101.4,54.8z"/>
			<path class="st0" d="M51.8,88.7c0,3.1,0,11,0,14c0,0,0,1.2,0,1.2c0,0.8,0.1,1.8-1,1.8c-0.4,0-0.8,0-1.2,0c0,0,0-0.1,0-0.1
				c0,0,0,0,0,0c0,0,0,0,0.1,0c0.1,0.1,0,0.1,0,0.1c0,0,0,0,0,0c0,0,0,0,0,0c0,0,0,0.2,0,0.2s-0.1-0.2-0.1-0.2c0,0,0.1,0,0.1,0
				c0,0,0,0.1,0,0.1c-0.5-0.5-0.4-1.3-0.4-2c0-15.4-0.1-32,0-47.4c0-0.5,0.1-1.1,0.4-1.6c0.8-0.1,1.7-0.3,2.4,0.3c0,0,0,0,0,0
				s0,0,0,0S51.8,88.7,51.8,88.7L51.8,88.7z M51.8,88.7l0-33.5c0,0,0,0.1,0,0.1c-0.3-0.2-0.6-0.4-1-0.4c-0.4,0-0.8,0.1-1.2,0.1
				c0,0,0.1,0,0.1,0c-0.3,0.4-0.3,1-0.3,1.5c0,0.9,0,3.8,0,4.7c0.1,13.7,0,28.9-0.1,42.7c0,0.6,0,1.3,0.3,1.8c0,0-0.1,0-0.1,0
				c0,0,0-0.1,0-0.1c0,0,0.1,0.1,0.1,0.1c0,0-0.1,0-0.1,0c0,0,0,0,0,0c0,0,0,0,0,0c0,0,0,0,0,0c0.1,0,0.1,0,0.1-0.1c0,0,0-0.1,0-0.1
				c0.6,0,1.2,0.1,1.7-0.2c0.5-0.3,0.4-1.1,0.4-1.6c0,0,0-1.2,0-1.2C51.8,99.7,51.8,91.7,51.8,88.7L51.8,88.7z"/>
			<path class="st0" d="M52.5,55.2c0.9-0.6,2.1-0.6,3.2-0.6c0,0,3.3,0,3.3,0c3.3,0,9.8-0.1,13.1-0.1c0.7,0.1,2.3-0.3,2.2,0.8
				c-0.5,1.3-1.5,2.4-2.5,3.3c-0.8,0.7-1.7,1.4-2.5,2.1c-0.4,0.4-0.9,0.7-1.4,1c-3.4,1.9-7.5,1.9-11.2,1.1c-1.6-0.4-3.7-1.2-4.1-3
				c-0.1-0.4,0-0.8,0-1.2C52.5,57.4,52.5,56.3,52.5,55.2L52.5,55.2z M52.5,55.2c0,1.1,0.1,2.2,0.1,3.3c0,0.4,0,0.8,0.1,1.2
				c0.5,1.8,2.4,2.5,4,2.9c3.7,0.8,7.7,0.7,11.1-1.1c0.5-0.2,0.9-0.6,1.3-0.9c0.8-0.7,1.7-1.4,2.5-2.1c1-0.9,2-1.9,2.4-3.1
				c0.2-0.7-1.5-0.4-1.9-0.5c-3.3,0-9.8,0-13.1,0c0,0-3.3,0-3.3,0C54.6,54.7,53.4,54.6,52.5,55.2L52.5,55.2z"/>
			<path class="st0" d="M52.9,93.4c-0.6-0.3-0.3-1-0.4-1.6c0,0,0-1.7,0-1.7c0-2.1,0-8-0.1-10.2c0-2.2-0.1-8-0.1-10.2
				c-0.1-2,0.6-2,2.2-1.3c1.2,0.5,1.6,1.7,1.5,2.9c0,0,0,3.4,0,3.4l-0.1,6.8c0,1.3,0,7.4-0.1,8.5c-0.1,1.1-0.6,2.3-1.5,2.9
				C54,93.3,53.5,93.7,52.9,93.4L52.9,93.4z M52.9,93.4c0.5,0.3,1.1-0.1,1.5-0.4c1-0.7,1.4-1.8,1.5-2.9c0.1-1.1,0-7.3,0-8.5
				c0,0,0-6.8,0-6.8s0-3.4,0-3.4c0-0.6,0-1.1-0.3-1.6c-0.3-0.8-1.2-1.1-1.9-1.4c-0.3-0.1-0.5-0.1-0.7-0.1c-0.4,0.2-0.3,1-0.3,1.4
				c0,0,0,3.4,0,3.4l0,6.8c0,2.2-0.1,8-0.1,10.2c0,0,0,1.7,0,1.7C52.6,92.3,52.4,93.1,52.9,93.4L52.9,93.4z"/>
			<path class="st0" d="M97.5,101.9c-0.1,1.1-0.3,2.8-1.6,3c-0.4,0.1-1.7,0-2.2,0c-5.7,0-12-0.1-17.7,0.1c0,0-0.7,0.1-0.6,0.1
				c0,0,0,0,0,0c-0.1-0.6-0.3-1.2,0-1.7c0.7-1,2.2-0.4,3.2-0.9c0.5-0.2,0.8-0.7,1.1-1.2c0.3-0.5,0.5-1.1,0.1-1.5
				c-0.4-0.5-1-0.2-1.5-0.2c-0.3,0-0.6,0.1-0.8,0.2c-0.8,0.4-1,1.4-1.7,1.9c0,0,0-0.1,0-0.1c-0.2-1.3-0.4-2.8,0.3-4.1
				c0.6-0.9,1.5-1.4,2.5-1.9c0.6-0.3,1.2-0.7,1.4-1.4c0.1-0.4,0.3-1.1-0.3-1.3c-0.8-0.1-1.7,0.2-2.1,1c-0.2,0.3-0.2,0.6-0.3,1
				c-0.2,0.7-0.8,1.2-1.5,1.6c-0.1-0.3-0.1-0.6-0.2-1c-0.2-0.9,0.6-1.6,0.8-2.4c0.3-1-0.1-2.5-1.2-2.7c-0.3,0-0.5,0.2-0.7,0.4
				c-0.6,0.6-0.7,1.5-0.5,2.3c0.1,0.6,0.5,1,0.7,1.6c0.2,0.6,0.1,1.3-0.1,1.8c-0.3-0.1-0.7-0.3-0.9-0.6c-0.5-0.5-0.4-1.3-0.7-1.9
				c-0.3-0.6-0.9-0.9-1.6-1c-0.3-0.1-0.7,0-0.8,0.3c-0.2,0.6,0.1,1.3,0.5,1.7c2.9,2.1,4.4,2.3,3.4,6.4c0,0,0,0.1,0,0.1
				c-0.2,0-0.4-0.1-0.5-0.3c-0.2-0.2-0.2-0.5-0.3-0.7c-0.6-0.8-1.5-1.1-2.4-1.1c-0.7,0-0.9,0.2-0.7,0.9c0.2,0.8,0.5,1.6,1.2,1.9
				c0.5,0.2,1,0.3,1.5,0.2c0.3,0,0.6,0,0.9,0.1c0.9,0.5,0.6,1.7,0.6,2.5c-0.1,0-0.3,0-0.4,0c-1.1-0.2-2.2-0.2-3.3-0.2
				c-3.7,0-9.4,0-13.1,0c-2.5,0-4.9,0.5-4.7-3c0,0,0-3.3,0-3.3c0-1.9-0.1-3.2,1.6-4.5c0.7-0.6,1.5-1.2,1.9-2
				c0.8-1.6,0.7-3.4,0.6-5.2c-0.1-2.5,0-5.6,0-8.2c0-1.1,0.1-2.2,0.1-3.3c0-0.6-0.2-1.2-0.5-1.8c1,0.5,2.1,0.8,3.2,0.8
				c0,0,0.5,0,0.5,0c1.6,0.1,3.1,0,4.7-0.4c2.7-0.6,5.2-2,7.2-3.9c0.7-0.6,1.5-1.9,2.6-1.6c0.3,0.1,0.6,0.4,0.9,0.6
				c1.1,0.9,2.1,1.8,3.3,2.6c2.3,1.6,5,2.7,7.8,2.7c1.4,0.1,2.8-0.1,4.2,0c1.1,0.1,1.4,0.9,1.4,1.9c0.1,0.7,0.1,1.4,0.1,2.1
				c-0.2,2.6,0,5.2-0.2,7.8c-0.2,2.7,0.1,5.9,2.3,7.7c0.5,0.4,1.1,0.9,1.5,1.5C97.4,97.6,97.6,99.8,97.5,101.9L97.5,101.9z
				 M97.5,101.9c0.1-2.1-0.2-4.2-1.1-6.1c-0.6-0.9-1.5-1.4-2.2-2.2c-1.6-1.9-1.8-4.6-1.6-7c0.2-2.6-0.1-5.2,0.1-7.8c0,0,0-0.5,0-0.5
				c0.1-0.7-0.1-1.4-0.1-2.1c-0.1-1.3-1.3-1.4-2.3-1.3c-4.4,0.2-7.3-0.1-11-2.7c-1.2-0.8-2.2-1.7-3.3-2.6c-0.3-0.2-0.5-0.4-0.9-0.5
				c-0.7-0.2-1.3,0.4-1.7,0.8c-2.2,2.3-4.9,4-8,4.7c-1.5,0.4-3.1,0.5-4.7,0.4c-1.2,0-2.5-0.3-3.6-0.8c0,0,0.1-0.1,0.1-0.1
				c0.8,1.5,0.3,3.3,0.4,4.9c0,2.5-0.1,5.7,0,8.2c0.1,1.9,0.2,4-0.8,5.6c-0.7,1.2-2.2,1.8-2.9,2.9c-0.6,0.9-0.4,2.1-0.4,3.1
				c0,0,0,3.3,0,3.3c0,1,0.1,2.3,1.2,2.6c0.9,0.3,2.3,0.1,3.2,0.2c0,0,3.3,0,3.3,0l6.5,0c2,0.1,4.6-0.1,6.6,0.2c-0.1,0,0.3,0,0.3,0
				c0,0-0.1,0.1-0.1,0.1c0-1,0.2-2.5-1.2-2.2c-0.6,0.1-1.2,0-1.7-0.2c-0.8-0.4-1.2-1.3-1.3-2.1c-0.1-0.3-0.1-0.6,0.1-0.9
				c0.1-0.1,0.3-0.2,0.4-0.2c0.4-0.1,0.8-0.1,1.3,0c0.7,0.1,1.3,0.5,1.8,1.1c0.2,0.3,0.2,0.8,0.6,0.9c0,0-0.1,0.1-0.1,0.1
				c1-4.1-0.5-4.1-3.3-6.2c-0.6-0.5-1.1-2-0.1-2.3c0.8-0.2,1.8,0.3,2.2,1.1c0.3,0.6,0.2,1.3,0.7,1.8c0.2,0.2,0.5,0.4,0.8,0.5
				c0,0-0.1,0.1-0.1,0.1c0.2-0.5,0.2-1.1,0.1-1.6c-0.2-0.5-0.6-1-0.7-1.6c-0.2-0.9-0.1-1.8,0.6-2.5c0.2-0.2,0.4-0.4,0.8-0.4
				c0.3,0,0.6,0.2,0.8,0.5c0.8,0.9,0.8,2.3,0.2,3.3c-0.1,0.3-0.3,0.5-0.4,0.7c-0.2,0.5,0,1.1,0.1,1.7c0,0-0.1-0.1-0.1-0.1
				c0.6-0.3,1.2-0.8,1.3-1.4c0.1-0.7,0.4-1.4,1-1.8c0.6-0.3,1.6-0.6,2,0.1c0.2,0.7-0.1,1.5-0.6,2c-0.5,0.5-1.2,0.7-1.8,1
				c-2.2,1.2-2.2,3.1-1.8,5.3c0,0-0.1,0-0.1,0c0.8-0.6,1-1.8,2.1-2c0.7,0,1.5-0.5,2,0.1c0.4,0.5,0.1,1.2-0.1,1.6
				c-0.3,0.5-0.6,1-1.1,1.3c-1,0.5-2.4-0.2-3.2,0.8c-0.3,0.5-0.1,1.1,0,1.6c0,0,0,0,0,0c0,0,0.6-0.1,0.7-0.1c5.7-0.2,12-0.1,17.7,0
				c0.4,0,1.8,0,2.2,0C97.2,104.6,97.4,103,97.5,101.9L97.5,101.9z"/>
			<path class="st0" d="M57.3,69.3c5.4,1.3,11.3-1.2,14.7-5.5c1.1-1.4,2-3.1,2.7-4.8c0,0,0-0.1,0-0.1s0.1,0.1,0.1,0.1
				c0.6,0.4,0.9,1.1,1.2,1.8c0.3,0.6,0.7,1.2,1,1.8c3,4.8,8.7,7.5,14.3,7c0.5,0,1.1-0.3,1.6-0.1c0.4,0.1,0.6,0.6,0.6,1
				c0,0.5,0.1,1.1,0,1.6c-0.2,0.8-1,1.1-1.7,1.2c-0.3,0.1-0.7,0.2-1,0.2c-3.1,0.6-6.5,0-9.2-1.6c-1.9-1-3.5-2.4-4.9-4
				c-0.4-0.4-1-1.2-1.4-1.5c-0.5-0.3-1.1,0.8-1.5,1.1c-2.2,2.7-5.3,4.8-8.7,5.6c-2.7,0.7-5.7,0.4-8.3-0.6
				C56.9,71.4,56.2,70,57.3,69.3L57.3,69.3z M57.3,69.3c-1.1,0.8-0.4,2.1-0.6,3.2c1.2,0.4,2.7,0.8,4.1,0.8c4.2,0.3,8.4-1.6,11.4-4.5
				c0.5-0.5,1-1,1.4-1.5c0.4-0.4,1-1.5,1.7-1.1c0.5,0.3,1.1,1,1.5,1.5c1.4,1.6,3.1,2.9,4.9,3.9c2.9,1.6,6.3,2.1,9.6,1.4
				c0.7-0.2,1.8-0.3,2-1.1c0.1-0.5,0-1,0-1.5c0-0.3-0.1-0.6-0.4-0.7c-0.2-0.1-0.7,0.1-1,0.1c-0.2,0-0.4,0-0.5,0
				c-5.7,0.5-11.4-2.3-14.5-7.1c-0.4-0.6-0.7-1.2-1.1-1.8c-0.3-0.6-0.5-1.3-1.1-1.7c0,0,0.1,0,0.1,0c-0.7,1.7-1.6,3.4-2.8,4.8
				C68.7,68.1,62.8,70.6,57.3,69.3L57.3,69.3z"/>
			<path class="st0" d="M97.6,80.8c0,2.2,0.1,8,0.1,10.2c0,0.6,0,1.1,0,1.7c0,0.5-0.4,0.9-0.9,0.9c-0.5,0-0.8-0.3-1.2-0.6
				c-0.7-0.5-1.2-1.3-1.4-2.2c-0.1-0.5,0-1.2-0.1-1.7c0,0,0-1.7,0-1.7c0-4.9,0-12.1,0-17c-0.2-1.2,2.9-3.6,3.5-2
				c0.1,0.3,0,0.6,0,0.9c0,0,0,0.4,0,0.4C97.7,72.3,97.6,78.1,97.6,80.8L97.6,80.8z M97.6,80.8c0-2.2-0.1-8-0.1-10.2
				c0-0.2,0-1,0-1.3c0-0.4,0.2-0.9-0.2-1.1c-0.8-0.4-2.2,0.8-2.6,1.5c-0.1,0.2-0.2,0.4-0.2,0.7c0,0,0,3.4,0,3.4c0,3.4,0,10.2,0,13.6
				c0,0,0,1.7,0,1.7c0,0.5,0,1.2,0,1.7c0.1,0.8,0.6,1.6,1.3,2c0.4,0.3,0.9,0.7,1.4,0.5c0.2-0.1,0.3-0.4,0.3-0.6c0-0.6,0-1.1,0-1.7
				C97.5,88.8,97.6,83,97.6,80.8L97.6,80.8z"/>
			<path class="st0" d="M96,67.4c-4,2.1-9,1.9-13-0.2c-3.6-1.9-6.1-5.4-7.4-9.1c-0.1-0.2-0.1-0.5-0.3-0.7c-0.1-0.2-0.4-0.2-0.5,0
				c-0.1,0.1-0.2,0.5-0.3,0.6c-0.2,0.4-0.7,1.6-0.9,2.1c-1.5,3.8-4.8,6.6-8.6,7.9C63,68.7,61,69,59,69c-0.8-0.2-1.7-0.4-2.5-0.6
				c-0.8-0.1-1.9-0.6-2.4-0.9c-1.9-0.4-1.7-1.7-1.6-3.3c0-0.3,0-0.7,0-1c0-0.3-0.1-0.6,0-1c0.1-0.4,0.6-0.6,1-0.5
				c0.4,0.1,0.6,0.4,0.8,0.6c0,0-0.1,0-0.1,0s0.4,0,0.4,0c0.5,0,1,0.4,1.4,0.5c6.5,2.5,14.4-0.3,18.1-6.1c0.2-0.4,0.6-0.8,0.8-1.3
				c0,0,0.2,0.1,0.2,0.1c0,0,0,0,0,0c0,0.1,0.1,0.1,0.2,0.2c0.6,0.6,1,1.4,1.5,2.1c1.9,2.2,4.3,4.1,7,5.2c3.7,1.4,7.9,1,11.5-0.3
				c0.2-0.2,0.6-0.4,0.9-0.6c0.3-0.1,0.7-0.4,1-0.3c0.1,0,0.2,0.1,0.2,0.2c0.3,0.6,0.1,1.3,0.1,1.9C97.7,65.5,98,67.1,96,67.4
				L96,67.4z M96,67.4c2-0.4,1.6-1.9,1.5-3.4c0-0.5,0.1-1.1,0-1.6c0-0.2-0.1-0.4-0.3-0.4c-0.3,0-0.7,0.2-1,0.3
				c-0.2,0.1-0.5,0.3-0.7,0.4c-0.1,0-0.1,0.1-0.2,0.2c-1.8,0.7-3.8,1.2-5.8,1.3c-4,0.3-7.9-1.3-10.9-4c-0.7-0.7-1.4-1.3-2.1-2.1
				c-0.5-0.7-0.9-1.5-1.5-2.1c-0.1-0.1-0.3-0.2-0.2-0.4c0,0,0.2,0.1,0.2,0.1c-0.2,0.4-0.6,0.8-0.8,1.2c-3.7,5.7-11.5,8.7-18,6.4
				c-0.5-0.1-0.9-0.4-1.4-0.6c-0.1,0-0.2,0-0.4,0c0,0-0.4,0-0.4,0s0,0,0,0c-0.3-0.2-0.5-0.5-0.8-0.6c-0.2-0.1-0.5,0-0.6,0.3
				c0,0.6,0,1.3,0,1.9c0,0.9-0.3,2,0.6,2.6c0.3,0.2,0.6,0.3,0.9,0.4c1.4,1,3.4,1,4.8,1.5c4-0.1,8-1.3,11-4c1.5-1.3,2.7-3,3.4-4.8
				c0.4-0.8,0.8-2,1.3-2.8c0.2-0.3,0.6-0.2,0.8,0c0.2,0.2,0.2,0.5,0.3,0.7c0.2,0.5,0.3,0.9,0.5,1.4c0.8,1.8,1.9,3.5,3.3,5
				C83.6,68.8,90.6,70.3,96,67.4L96,67.4z"/>
			<path class="st0" d="M97.7,60c0.1,0.7-0.6,0.8-1.1,1.1c-3.3,2.1-7.4,2.8-11.2,1.9c-2.7-0.7-5.2-2.2-7.1-4.2
				c-0.8-0.8-1.4-1.8-2.2-2.5c-0.2-0.2-0.5-0.4-0.6-0.7c-0.1-0.3,0.1-0.7,0.4-0.9c0.5-0.2,1.2-0.1,1.7-0.1c5.5,0,12.8,0.1,18.3,0.1
				c1,0,1.8-0.2,1.7,1.1C97.7,56.4,97.7,59.4,97.7,60L97.7,60z M97.7,60c0-0.6,0-3.6,0-4.2c0.1-1.3-0.7-1.1-1.7-1.1
				c-5.5,0-12.9,0.1-18.3,0.1c0,0-0.8,0-0.8,0c-0.4,0-1.1,0.1-1,0.6c0.1,0.2,0.3,0.4,0.5,0.6c0.8,0.8,1.4,1.7,2.2,2.6
				c1.9,2,4.3,3.6,7,4.3c3.8,1,7.9,0.3,11.2-1.7C97.1,60.8,97.8,60.7,97.7,60L97.7,60z"/>
			<path class="st0" d="M100.4,105.7C100.4,105.7,100.4,105.7,100.4,105.7c0,0-1.9,0-1.9,0c-0.3-0.5-0.3-1.1-0.3-1.6
				c0,0,0-1.6,0-1.6c-0.1-10.6-0.1-24.8-0.1-35.4c0-2.1,0-7.6,0-9.7c0.1-0.8-0.3-1.7,0.2-2.5c0.2-0.3,0.5-0.4,0.7-0.5
				c0.3,0,0.6,0,0.9,0.1c0.9,0.3,0.8,1.5,0.8,2.3c0,0,0,3.3,0,3.3c0,13.2-0.1,29.2-0.1,42.4c0,0,0,1.6,0,1.6
				C100.6,104.6,100.8,105.2,100.4,105.7L100.4,105.7z M100.4,105.7c0.3-0.5,0.1-1.1,0.2-1.6c0,0,0-1.6,0-1.6
				c-0.1-14.4-0.1-31.2-0.1-45.6c0-0.5,0-1.1-0.2-1.6c-0.2-0.5-0.7-0.6-1.3-0.6l0,0c-0.2,0.1-0.4,0.2-0.6,0.4
				c-0.4,0.6,0,1.6-0.1,2.3c0,2,0,7.6,0,9.7c0,10.6,0,24.8-0.1,35.4c0,0,0,1.6,0,1.6c0,0.5,0,1.1,0.2,1.6
				C98.5,105.7,100.4,105.7,100.4,105.7C100.4,105.7,100.4,105.7,100.4,105.7L100.4,105.7z"/>
			<path class="st0" d="M92.9,54.1c-14,0-32.4,0.1-46.4,0.1c-1.4,0.1-1.9-0.6-2.2-1.8c-0.2-1.3-0.4-3.1,0.7-4
				c0.5-0.4,1.4-0.3,2.1-0.3c14.3-0.1,41.4,0.1,55.7,0.1c1,0,2.3-0.4,2.8,0.7c0.6,1.3,0.8,4-0.4,4.9c-1.2,0.8-2.7,0.5-4,0.4
				C98.4,54.1,95.6,54.1,92.9,54.1L92.9,54.1z M92.9,54.1c2.8,0,5.5,0,8.2,0c1.3,0,2.8,0.4,4-0.4c1.3-0.9,1-3.5,0.4-4.8
				c-0.6-1-1.8-0.7-2.8-0.6c-14.3,0-41.4,0.1-55.7,0.1c0,0-1,0-1,0c-0.7,0-1.3,0.4-1.5,1c-0.4,1.3-0.3,2.7,0.2,3.9
				c0.1,0.3,0.4,0.5,0.7,0.7c0.3,0.1,0.6,0.1,1,0.1C60.4,54,78.9,54,92.9,54.1L92.9,54.1z"/>
			<path class="st0" d="M101.4,105.7c0,0-0.1,0-0.2-0.1l0.3-0.1C101.4,105.5,101.4,105.6,101.4,105.7
				C101.4,105.7,101.4,105.6,101.4,105.7z M101.4,105.7c-0.1,0-0.1-0.1-0.2-0.1l0.3-0.1C101.4,105.5,101.4,105.6,101.4,105.7
				C101.4,105.7,101.4,105.6,101.4,105.7z"/>
		</g>
	</g>
</g>
</svg>
